<svg id="Layer_1" data-name="Layer 1" xmlns="http://www.w3.org/2000/svg" xmlns:xlink="http://www.w3.org/1999/xlink" viewBox="0 0 196.13 225.73"><defs><style>.cls-1,.cls-10,.cls-11,.cls-12,.cls-13,.cls-14,.cls-15,.cls-16,.cls-17,.cls-18,.cls-19,.cls-2,.cls-20,.cls-21,.cls-22,.cls-23,.cls-24,.cls-25,.cls-26,.cls-27,.cls-28,.cls-29,.cls-3,.cls-30,.cls-31,.cls-32,.cls-33,.cls-34,.cls-35,.cls-36,.cls-37,.cls-38,.cls-39,.cls-4,.cls-40,.cls-41,.cls-42,.cls-43,.cls-44,.cls-45,.cls-46,.cls-47,.cls-48,.cls-49,.cls-5,.cls-50,.cls-51,.cls-52,.cls-53,.cls-54,.cls-55,.cls-56,.cls-57,.cls-58,.cls-59,.cls-6,.cls-60,.cls-61,.cls-62,.cls-63,.cls-64,.cls-65,.cls-66,.cls-67,.cls-68,.cls-69,.cls-7,.cls-70,.cls-71,.cls-72,.cls-73,.cls-74,.cls-75,.cls-76,.cls-77,.cls-78,.cls-8,.cls-9{fill:none;stroke-miterlimit:10;}.cls-1{stroke:url(#linear-gradient);}.cls-2{stroke:url(#linear-gradient-2);}.cls-3{stroke:url(#linear-gradient-3);}.cls-4{stroke:url(#linear-gradient-4);}.cls-5{stroke:url(#linear-gradient-5);}.cls-6{stroke:url(#linear-gradient-6);}.cls-7{stroke:url(#linear-gradient-7);}.cls-8{stroke:url(#linear-gradient-8);}.cls-9{stroke:url(#linear-gradient-9);}.cls-10{stroke:url(#linear-gradient-10);}.cls-11{stroke:url(#linear-gradient-11);}.cls-12{stroke:url(#linear-gradient-12);}.cls-13{stroke:url(#linear-gradient-13);}.cls-14{stroke:url(#linear-gradient-14);}.cls-15{stroke:url(#linear-gradient-15);}.cls-16{stroke:url(#linear-gradient-16);}.cls-17{stroke:url(#linear-gradient-17);}.cls-18{stroke:url(#linear-gradient-18);}.cls-19{stroke:url(#linear-gradient-19);}.cls-20{stroke:url(#linear-gradient-20);}.cls-21{stroke:url(#linear-gradient-21);}.cls-22{stroke:url(#linear-gradient-22);}.cls-23{stroke:url(#linear-gradient-23);}.cls-24{stroke:url(#linear-gradient-24);}.cls-25{stroke:url(#linear-gradient-25);}.cls-26{stroke:url(#linear-gradient-26);}.cls-27{stroke:url(#linear-gradient-27);}.cls-28{stroke:url(#linear-gradient-28);}.cls-29{stroke:url(#linear-gradient-29);}.cls-30{stroke:url(#linear-gradient-30);}.cls-31{stroke:url(#linear-gradient-31);}.cls-32{stroke:url(#linear-gradient-32);}.cls-33{stroke:url(#linear-gradient-33);}.cls-34{stroke:url(#linear-gradient-34);}.cls-35{stroke:url(#linear-gradient-35);}.cls-36{stroke:url(#linear-gradient-36);}.cls-37{stroke:url(#linear-gradient-37);}.cls-38{stroke:url(#linear-gradient-38);}.cls-39{stroke:url(#linear-gradient-39);}.cls-40{stroke:url(#linear-gradient-40);}.cls-41{stroke:url(#linear-gradient-41);}.cls-42{stroke:url(#linear-gradient-42);}.cls-43{stroke:url(#linear-gradient-43);}.cls-44{stroke:url(#linear-gradient-44);}.cls-45{stroke:url(#linear-gradient-45);}.cls-46{stroke:url(#linear-gradient-46);}.cls-47{stroke:url(#linear-gradient-47);}.cls-48{stroke:url(#linear-gradient-48);}.cls-49{stroke:url(#linear-gradient-49);}.cls-50{stroke:url(#linear-gradient-50);}.cls-51{stroke:url(#linear-gradient-51);}.cls-52{stroke:url(#linear-gradient-52);}.cls-53{stroke:url(#linear-gradient-53);}.cls-54{stroke:url(#linear-gradient-54);}.cls-55{stroke:url(#linear-gradient-55);}.cls-56{stroke:url(#linear-gradient-56);}.cls-57{stroke:url(#linear-gradient-57);}.cls-58{stroke:url(#linear-gradient-58);}.cls-59{stroke:url(#linear-gradient-59);}.cls-60{stroke:url(#linear-gradient-60);}.cls-61{stroke:url(#linear-gradient-61);}.cls-62{stroke:url(#linear-gradient-62);}.cls-63{stroke:url(#linear-gradient-63);}.cls-64{stroke:url(#linear-gradient-64);}.cls-65{stroke:url(#linear-gradient-65);}.cls-66{stroke:url(#linear-gradient-66);}.cls-67{stroke:url(#linear-gradient-67);}.cls-68{stroke:url(#linear-gradient-68);}.cls-69{stroke:url(#linear-gradient-69);}.cls-70{stroke:url(#linear-gradient-70);}.cls-71{stroke:url(#linear-gradient-71);}.cls-72{stroke:url(#linear-gradient-72);}.cls-73{stroke:url(#linear-gradient-73);}.cls-74{stroke:url(#linear-gradient-74);}.cls-75{stroke:url(#linear-gradient-75);}.cls-76{stroke:url(#linear-gradient-76);}.cls-77{stroke:url(#linear-gradient-77);}.cls-78{stroke:url(#linear-gradient-78);}</style><linearGradient id="linear-gradient" x1="64.45" y1="3.87" x2="162.6" y2="3.87" gradientTransform="translate(148.41 132.66) rotate(99.98) scale(0.07)" gradientUnits="userSpaceOnUse"><stop offset="0" stop-color="#312f85"/><stop offset="0.51" stop-color="#a72783"/><stop offset="1" stop-color="#d3011d"/></linearGradient><linearGradient id="linear-gradient-2" x1="75.53" y1="16.38" x2="173.68" y2="16.38" gradientTransform="translate(149.06 130.89) rotate(95.98) scale(0.08)" xlink:href="#linear-gradient"/><linearGradient id="linear-gradient-3" x1="84.69" y1="28.3" x2="182.84" y2="28.3" gradientTransform="translate(149.64 128.88) rotate(91.98) scale(0.09)" xlink:href="#linear-gradient"/><linearGradient id="linear-gradient-4" x1="92.17" y1="39.58" x2="190.32" y2="39.58" gradientTransform="translate(150.13 126.6) rotate(87.98) scale(0.1)" xlink:href="#linear-gradient"/><linearGradient id="linear-gradient-5" x1="98.17" y1="50.17" x2="196.32" y2="50.17" gradientTransform="translate(150.49 124.04) rotate(83.98) scale(0.11)" xlink:href="#linear-gradient"/><linearGradient id="linear-gradient-6" x1="102.9" y1="60.06" x2="201.05" y2="60.06" gradientTransform="translate(150.7 121.17) rotate(79.98) scale(0.12)" xlink:href="#linear-gradient"/><linearGradient id="linear-gradient-7" x1="106.52" y1="69.24" x2="204.67" y2="69.24" gradientTransform="translate(150.71 117.98) rotate(75.99) scale(0.14)" xlink:href="#linear-gradient"/><linearGradient id="linear-gradient-8" x1="109.2" y1="77.7" x2="207.35" y2="77.7" gradientTransform="translate(150.47 114.44) rotate(71.99) scale(0.15)" xlink:href="#linear-gradient"/><linearGradient id="linear-gradient-9" x1="111.07" y1="85.47" x2="209.22" y2="85.47" gradientTransform="translate(149.93 110.53) rotate(67.99) scale(0.17)" xlink:href="#linear-gradient"/><linearGradient id="linear-gradient-10" x1="112.26" y1="92.56" x2="210.41" y2="92.56" gradientTransform="translate(149.02 106.25) rotate(63.99) scale(0.19)" xlink:href="#linear-gradient"/><linearGradient id="linear-gradient-11" x1="112.89" y1="99" x2="211.04" y2="99" gradientTransform="translate(147.69 101.57) rotate(59.99) scale(0.21)" xlink:href="#linear-gradient"/><linearGradient id="linear-gradient-12" x1="113.05" y1="104.82" x2="211.19" y2="104.82" gradientTransform="matrix(0.13, 0.19, -0.19, 0.13, 145.86, 96.48)" xlink:href="#linear-gradient"/><linearGradient id="linear-gradient-13" x1="112.82" y1="110.06" x2="210.97" y2="110.06" gradientTransform="matrix(0.16, 0.2, -0.2, 0.16, 143.42, 90.99)" xlink:href="#linear-gradient"/><linearGradient id="linear-gradient-14" x1="112.29" y1="114.75" x2="210.44" y2="114.75" gradientTransform="translate(140.3 85.08) rotate(47.99) scale(0.28)" xlink:href="#linear-gradient"/><linearGradient id="linear-gradient-15" x1="111.52" y1="118.93" x2="209.67" y2="118.93" gradientTransform="translate(136.39 78.78) rotate(43.99) scale(0.31)" xlink:href="#linear-gradient"/><linearGradient id="linear-gradient-16" x1="110.57" y1="122.63" x2="208.71" y2="122.63" gradientTransform="matrix(0.27, 0.22, -0.22, 0.27, 131.56, 72.1)" xlink:href="#linear-gradient"/><linearGradient id="linear-gradient-17" x1="109.48" y1="125.89" x2="207.63" y2="125.89" gradientTransform="translate(125.69 65.08) rotate(35.99) scale(0.39)" xlink:href="#linear-gradient"/><linearGradient id="linear-gradient-18" x1="108.3" y1="128.75" x2="206.44" y2="128.75" gradientTransform="matrix(0.37, 0.23, -0.23, 0.37, 118.63, 57.74)" xlink:href="#linear-gradient"/><linearGradient id="linear-gradient-19" x1="107.06" y1="131.25" x2="205.2" y2="131.25" gradientTransform="matrix(0.42, 0.22, -0.22, 0.42, 110.25, 50.16)" xlink:href="#linear-gradient"/><linearGradient id="linear-gradient-20" x1="105.79" y1="133.41" x2="203.93" y2="133.41" gradientTransform="translate(100.37 42.4) rotate(24) scale(0.53)" xlink:href="#linear-gradient"/><linearGradient id="linear-gradient-21" x1="104.51" y1="135.27" x2="202.66" y2="135.27" gradientTransform="translate(88.81 34.57) rotate(20) scale(0.59)" xlink:href="#linear-gradient"/><linearGradient id="linear-gradient-22" x1="103.25" y1="136.86" x2="201.39" y2="136.86" gradientTransform="translate(75.4 26.78) rotate(16) scale(0.66)" xlink:href="#linear-gradient"/><linearGradient id="linear-gradient-23" x1="102.01" y1="138.21" x2="200.16" y2="138.21" gradientTransform="matrix(0.71, 0.15, -0.15, 0.71, 59.93, 19.19)" xlink:href="#linear-gradient"/><linearGradient id="linear-gradient-24" x1="100.82" y1="139.34" x2="198.97" y2="139.34" gradientTransform="translate(42.19 11.97) rotate(8) scale(0.81)" xlink:href="#linear-gradient"/><linearGradient id="linear-gradient-25" x1="99.68" y1="140.28" x2="197.83" y2="140.28" gradientTransform="translate(21.98 5.35) rotate(4) scale(0.9)" xlink:href="#linear-gradient"/><linearGradient id="linear-gradient-26" x1="97.65" y1="140.64" x2="195.79" y2="140.64" gradientTransform="matrix(1, 0, 0, 1, 0, 0)" xlink:href="#linear-gradient"/><linearGradient id="linear-gradient-27" x1="-32.7" y1="4.11" x2="65.62" y2="4.11" gradientTransform="translate(50.15 139.76) rotate(99.98) scale(0.07)" xlink:href="#linear-gradient"/><linearGradient id="linear-gradient-28" x1="-21.62" y1="16.61" x2="76.7" y2="16.61" gradientTransform="translate(51.2 138.83) rotate(95.98) scale(0.08)" xlink:href="#linear-gradient"/><linearGradient id="linear-gradient-29" x1="-12.46" y1="28.53" x2="85.86" y2="28.53" gradientTransform="translate(52.3 137.71) rotate(91.98) scale(0.09)" xlink:href="#linear-gradient"/><linearGradient id="linear-gradient-30" x1="-4.98" y1="39.81" x2="93.34" y2="39.81" gradientTransform="translate(53.42 136.39) rotate(87.98) scale(0.1)" xlink:href="#linear-gradient"/><linearGradient id="linear-gradient-31" x1="1.02" y1="50.41" x2="99.34" y2="50.41" gradientTransform="translate(54.57 134.83) rotate(83.98) scale(0.11)" xlink:href="#linear-gradient"/><linearGradient id="linear-gradient-32" x1="5.75" y1="60.3" x2="104.07" y2="60.3" gradientTransform="translate(55.72 133.02) rotate(79.98) scale(0.12)" xlink:href="#linear-gradient"/><linearGradient id="linear-gradient-33" x1="9.37" y1="69.47" x2="107.69" y2="69.47" gradientTransform="translate(56.85 130.93) rotate(75.99) scale(0.14)" xlink:href="#linear-gradient"/><linearGradient id="linear-gradient-34" x1="12.05" y1="77.94" x2="110.37" y2="77.94" gradientTransform="translate(57.94 128.52) rotate(71.99) scale(0.15)" xlink:href="#linear-gradient"/><linearGradient id="linear-gradient-35" x1="13.92" y1="85.7" x2="112.24" y2="85.7" gradientTransform="translate(58.97 125.76) rotate(67.99) scale(0.17)" xlink:href="#linear-gradient"/><linearGradient id="linear-gradient-36" x1="15.11" y1="92.8" x2="113.43" y2="92.8" gradientTransform="translate(59.89 122.63) rotate(63.99) scale(0.19)" xlink:href="#linear-gradient"/><linearGradient id="linear-gradient-37" x1="15.74" y1="99.24" x2="114.06" y2="99.24" gradientTransform="translate(60.67 119.08) rotate(59.99) scale(0.21)" xlink:href="#linear-gradient"/><linearGradient id="linear-gradient-38" x1="15.9" y1="105.06" x2="114.21" y2="105.06" gradientTransform="matrix(0.13, 0.19, -0.19, 0.13, 61.26, 115.09)" xlink:href="#linear-gradient"/><linearGradient id="linear-gradient-39" x1="15.67" y1="110.3" x2="113.99" y2="110.3" gradientTransform="matrix(0.16, 0.2, -0.2, 0.16, 61.6, 110.62)" xlink:href="#linear-gradient"/><linearGradient id="linear-gradient-40" x1="15.14" y1="114.99" x2="113.46" y2="114.99" gradientTransform="translate(61.63 105.64) rotate(47.99) scale(0.28)" xlink:href="#linear-gradient"/><linearGradient id="linear-gradient-41" x1="14.37" y1="119.16" x2="112.69" y2="119.16" gradientTransform="translate(61.29 100.12) rotate(43.99) scale(0.31)" xlink:href="#linear-gradient"/><linearGradient id="linear-gradient-42" x1="13.42" y1="122.86" x2="111.74" y2="122.86" gradientTransform="matrix(0.27, 0.22, -0.22, 0.27, 60.47, 94.03)" xlink:href="#linear-gradient"/><linearGradient id="linear-gradient-43" x1="12.33" y1="126.13" x2="110.65" y2="126.13" gradientTransform="translate(59.1 87.34) rotate(35.99) scale(0.39)" xlink:href="#linear-gradient"/><linearGradient id="linear-gradient-44" x1="11.15" y1="128.99" x2="109.47" y2="128.99" gradientTransform="matrix(0.37, 0.23, -0.23, 0.37, 57.06, 80.03)" xlink:href="#linear-gradient"/><linearGradient id="linear-gradient-45" x1="9.91" y1="131.48" x2="108.23" y2="131.48" gradientTransform="matrix(0.42, 0.22, -0.22, 0.42, 54.23, 72.08)" xlink:href="#linear-gradient"/><linearGradient id="linear-gradient-46" x1="8.64" y1="133.64" x2="106.95" y2="133.64" gradientTransform="translate(50.48 63.5) rotate(24) scale(0.53)" xlink:href="#linear-gradient"/><linearGradient id="linear-gradient-47" x1="7.36" y1="135.5" x2="105.68" y2="135.5" gradientTransform="translate(45.66 54.27) rotate(20) scale(0.59)" xlink:href="#linear-gradient"/><linearGradient id="linear-gradient-48" x1="6.1" y1="137.1" x2="104.42" y2="137.1" gradientTransform="translate(39.6 44.42) rotate(16) scale(0.66)" xlink:href="#linear-gradient"/><linearGradient id="linear-gradient-49" x1="4.86" y1="138.44" x2="103.18" y2="138.44" gradientTransform="matrix(0.71, 0.15, -0.15, 0.71, 32.11, 33.97)" xlink:href="#linear-gradient"/><linearGradient id="linear-gradient-50" x1="3.67" y1="139.58" x2="101.99" y2="139.58" gradientTransform="translate(23.01 22.96) rotate(8) scale(0.81)" xlink:href="#linear-gradient"/><linearGradient id="linear-gradient-51" x1="2.53" y1="140.52" x2="100.85" y2="140.52" gradientTransform="translate(12.07 11.47) rotate(4) scale(0.9)" xlink:href="#linear-gradient"/><linearGradient id="linear-gradient-52" x1="0.5" y1="140.87" x2="98.82" y2="140.87" gradientTransform="matrix(1, 0, 0, 1, 0, 0)" xlink:href="#linear-gradient"/><linearGradient id="linear-gradient-53" x1="-33.2" y1="-80.12" x2="162.93" y2="-80.12" gradientTransform="translate(93.21 51.07) rotate(99.98) scale(0.07)" xlink:href="#linear-gradient"/><linearGradient id="linear-gradient-54" x1="-22.12" y1="-67.61" x2="174.01" y2="-67.61" gradientTransform="translate(93.33 50.06) rotate(95.98) scale(0.08)" xlink:href="#linear-gradient"/><linearGradient id="linear-gradient-55" x1="-12.96" y1="-55.69" x2="183.17" y2="-55.69" gradientTransform="translate(93.39 48.94) rotate(91.98) scale(0.09)" xlink:href="#linear-gradient"/><linearGradient id="linear-gradient-56" x1="-5.48" y1="-44.41" x2="190.65" y2="-44.41" gradientTransform="translate(93.37 47.69) rotate(87.98) scale(0.1)" xlink:href="#linear-gradient"/><linearGradient id="linear-gradient-57" x1="0.53" y1="-33.82" x2="196.66" y2="-33.82" gradientTransform="translate(93.25 46.31) rotate(83.98) scale(0.11)" xlink:href="#linear-gradient"/><linearGradient id="linear-gradient-58" x1="5.25" y1="-23.93" x2="201.38" y2="-23.93" gradientTransform="translate(93.02 44.79) rotate(79.98) scale(0.12)" xlink:href="#linear-gradient"/><linearGradient id="linear-gradient-59" x1="8.87" y1="-14.75" x2="205" y2="-14.75" gradientTransform="translate(92.63 43.12) rotate(75.99) scale(0.14)" xlink:href="#linear-gradient"/><linearGradient id="linear-gradient-60" x1="11.55" y1="-6.29" x2="207.68" y2="-6.29" gradientTransform="translate(92.08 41.29) rotate(71.99) scale(0.15)" xlink:href="#linear-gradient"/><linearGradient id="linear-gradient-61" x1="13.42" y1="1.48" x2="209.55" y2="1.48" gradientTransform="translate(91.32 39.32) rotate(67.99) scale(0.17)" xlink:href="#linear-gradient"/><linearGradient id="linear-gradient-62" x1="14.62" y1="8.57" x2="210.74" y2="8.57" gradientTransform="translate(90.34 37.19) rotate(63.99) scale(0.19)" xlink:href="#linear-gradient"/><linearGradient id="linear-gradient-63" x1="15.24" y1="15.01" x2="211.37" y2="15.01" gradientTransform="translate(89.07 34.9) rotate(59.99) scale(0.21)" xlink:href="#linear-gradient"/><linearGradient id="linear-gradient-64" x1="15.4" y1="20.84" x2="211.53" y2="20.84" gradientTransform="matrix(0.13, 0.19, -0.19, 0.13, 87.5, 32.47)" xlink:href="#linear-gradient"/><linearGradient id="linear-gradient-65" x1="15.17" y1="26.07" x2="211.3" y2="26.07" gradientTransform="matrix(0.16, 0.2, -0.2, 0.16, 85.56, 29.89)" xlink:href="#linear-gradient"/><linearGradient id="linear-gradient-66" x1="14.64" y1="30.76" x2="210.77" y2="30.76" gradientTransform="translate(83.22 27.18) rotate(47.99) scale(0.28)" xlink:href="#linear-gradient"/><linearGradient id="linear-gradient-67" x1="13.87" y1="34.94" x2="210" y2="34.94" gradientTransform="translate(80.41 24.36) rotate(43.99) scale(0.31)" xlink:href="#linear-gradient"/><linearGradient id="linear-gradient-68" x1="12.92" y1="38.64" x2="209.05" y2="38.64" gradientTransform="matrix(0.27, 0.22, -0.22, 0.27, 77.08, 21.46)" xlink:href="#linear-gradient"/><linearGradient id="linear-gradient-69" x1="11.83" y1="41.9" x2="207.96" y2="41.9" gradientTransform="translate(73.16 18.49) rotate(35.99) scale(0.39)" xlink:href="#linear-gradient"/><linearGradient id="linear-gradient-70" x1="10.65" y1="44.76" x2="206.78" y2="44.76" gradientTransform="matrix(0.37, 0.23, -0.23, 0.37, 68.58, 15.51)" xlink:href="#linear-gradient"/><linearGradient id="linear-gradient-71" x1="9.41" y1="47.26" x2="205.54" y2="47.26" gradientTransform="matrix(0.42, 0.22, -0.22, 0.42, 63.28, 12.56)" xlink:href="#linear-gradient"/><linearGradient id="linear-gradient-72" x1="8.14" y1="49.42" x2="204.27" y2="49.42" gradientTransform="translate(57.18 9.7) rotate(24) scale(0.53)" xlink:href="#linear-gradient"/><linearGradient id="linear-gradient-73" x1="6.86" y1="51.28" x2="202.99" y2="51.28" gradientTransform="translate(50.2 7.01) rotate(20) scale(0.59)" xlink:href="#linear-gradient"/><linearGradient id="linear-gradient-74" x1="5.6" y1="52.87" x2="201.73" y2="52.87" gradientTransform="translate(42.24 4.56) rotate(16) scale(0.66)" xlink:href="#linear-gradient"/><linearGradient id="linear-gradient-75" x1="4.37" y1="54.22" x2="200.49" y2="54.22" gradientTransform="matrix(0.71, 0.15, -0.15, 0.71, 33.24, 2.46)" xlink:href="#linear-gradient"/><linearGradient id="linear-gradient-76" x1="3.17" y1="55.35" x2="199.3" y2="55.35" gradientTransform="translate(23.1 0.84) rotate(8) scale(0.81)" xlink:href="#linear-gradient"/><linearGradient id="linear-gradient-77" x1="2.03" y1="56.3" x2="198.16" y2="56.3" gradientTransform="translate(11.73 -0.18) rotate(4) scale(0.9)" xlink:href="#linear-gradient"/><linearGradient id="linear-gradient-78" x1="0" y1="56.65" x2="196.13" y2="56.65" gradientTransform="matrix(1, 0, 0, 1, 0, 0)" xlink:href="#linear-gradient"/></defs><title>stbx_logo</title><polygon class="cls-1" points="152.07 145.11 149.3 137.55 141.37 136.17 144.14 143.72 152.07 145.11"/><polygon class="cls-2" points="153 145.18 149.34 137.02 140.44 136.1 144.1 144.26 153 145.18"/><polygon class="cls-3" points="154.03 145.18 149.34 136.42 139.41 136.09 144.1 144.85 154.03 145.18"/><polygon class="cls-4" points="155.18 145.11 149.3 135.76 138.26 136.16 144.14 145.51 155.18 145.11"/><polygon class="cls-5" points="156.44 144.94 149.2 135.03 137 136.34 144.24 146.24 156.44 144.94"/><polygon class="cls-6" points="157.83 144.65 149.04 134.23 135.61 136.62 144.41 147.04 157.83 144.65"/><polygon class="cls-7" points="159.34 144.23 148.79 133.36 134.1 137.05 144.65 147.92 159.34 144.23"/><polygon class="cls-8" points="160.99 143.64 148.45 132.41 132.45 137.64 144.99 148.87 160.99 143.64"/><polygon class="cls-9" points="162.77 142.86 148 131.38 130.67 138.42 145.44 149.89 162.77 142.86"/><polygon class="cls-10" points="164.68 141.85 147.42 130.28 128.76 139.42 146.02 150.99 164.68 141.85"/><polygon class="cls-11" points="166.72 140.59 146.7 129.1 126.72 140.68 146.75 152.17 166.72 140.59"/><polygon class="cls-12" points="168.89 139.04 145.8 127.85 124.56 142.24 147.64 153.42 168.89 139.04"/><polygon class="cls-13" points="171.17 137.15 144.71 126.54 122.28 144.13 148.73 154.73 171.17 137.15"/><polygon class="cls-14" points="173.55 134.88 143.4 125.17 119.9 146.4 150.04 156.11 173.55 134.88"/><polygon class="cls-15" points="176.01 132.17 141.84 123.75 117.44 149.1 151.6 157.53 176.01 132.17"/><polygon class="cls-16" points="178.53 128.99 140 122.3 114.92 152.29 153.44 158.98 178.53 128.99"/><polygon class="cls-17" points="181.07 125.26 137.85 120.83 112.37 156.02 155.59 160.45 181.07 125.26"/><polygon class="cls-18" points="183.6 120.93 135.36 119.37 109.84 160.34 158.09 161.91 183.6 120.93"/><polygon class="cls-19" points="186.07 115.93 132.48 117.94 107.37 165.34 160.97 163.33 186.07 115.93"/><polygon class="cls-20" points="188.43 110.21 129.17 116.58 105.02 171.07 164.27 164.69 188.43 110.21"/><polygon class="cls-21" points="190.59 103.68 125.41 115.34 102.85 177.6 168.04 165.94 190.59 103.68"/><polygon class="cls-22" points="192.48 96.27 121.14 114.25 100.96 185 172.31 167.03 192.48 96.27"/><polygon class="cls-23" points="194 87.91 116.32 113.37 99.44 193.36 177.13 167.9 194 87.91"/><polygon class="cls-24" points="195.04 78.53 110.91 112.77 98.4 202.74 182.54 168.5 195.04 78.53"/><polygon class="cls-25" points="195.47 68.06 104.86 112.52 97.97 213.22 188.58 168.75 195.47 68.06"/><polygon class="cls-26" points="195.13 56.41 98.15 112.72 98.31 224.86 195.29 168.55 195.13 56.41"/><polygon class="cls-27" points="51.04 144.65 56.2 138.48 48.27 137.09 43.11 143.27 51.04 144.65"/><polygon class="cls-28" points="51.49 144.95 56.73 137.71 47.83 136.79 42.59 144.03 51.49 144.95"/><polygon class="cls-29" points="52 145.25 57.25 136.82 47.31 136.49 42.07 144.93 52 145.25"/><polygon class="cls-30" points="52.6 145.55 57.75 135.79 46.72 136.2 41.56 145.95 52.6 145.55"/><polygon class="cls-31" points="53.28 145.83 58.24 134.62 46.04 135.92 41.08 147.13 53.28 145.83"/><polygon class="cls-32" points="54.05 146.08 58.68 133.27 45.26 135.66 40.63 148.47 54.05 146.08"/><polygon class="cls-33" points="54.93 146.31 59.07 131.75 44.38 135.44 40.24 150 54.93 146.31"/><polygon class="cls-34" points="55.93 146.49 59.39 130.03 43.39 135.26 39.93 151.72 55.93 146.49"/><polygon class="cls-35" points="57.04 146.61 59.6 128.1 42.27 135.14 39.71 153.65 57.04 146.61"/><polygon class="cls-36" points="58.29 146.66 59.69 125.94 41.03 135.09 39.63 155.8 58.29 146.66"/><polygon class="cls-37" points="59.67 146.62 59.62 123.55 39.64 135.13 39.69 158.2 59.67 146.62"/><polygon class="cls-38" points="61.2 146.47 59.36 120.9 38.11 135.28 39.96 160.85 61.2 146.47"/><polygon class="cls-39" points="62.89 146.18 58.86 117.98 36.43 135.57 40.45 163.76 62.89 146.18"/><polygon class="cls-40" points="64.73 145.73 58.09 114.79 34.58 136.02 41.23 166.96 64.73 145.73"/><polygon class="cls-41" points="66.74 145.09 56.98 111.31 32.57 136.66 42.34 170.44 66.74 145.09"/><polygon class="cls-42" points="68.92 144.22 55.48 107.53 30.39 137.53 43.83 174.21 68.92 144.22"/><polygon class="cls-43" points="71.27 143.09 53.53 103.47 28.05 138.66 45.79 178.28 71.27 143.09"/><polygon class="cls-44" points="73.78 141.66 51.05 99.11 25.53 140.09 48.27 182.63 73.78 141.66"/><polygon class="cls-45" points="76.46 139.87 47.96 94.48 22.86 141.88 51.35 187.27 76.46 139.87"/><polygon class="cls-46" points="79.28 137.68 44.19 89.58 20.03 144.06 55.13 192.17 79.28 137.68"/><polygon class="cls-47" points="82.25 135.04 39.62 84.44 17.07 146.7 59.7 197.3 82.25 135.04"/><polygon class="cls-48" points="85.33 131.88 34.16 79.1 13.98 149.86 65.16 202.64 85.33 131.88"/><polygon class="cls-49" points="88.5 128.15 27.69 73.61 10.81 153.6 71.63 208.14 88.5 128.15"/><polygon class="cls-50" points="91.73 123.76 20.09 68.02 7.59 157.99 79.22 213.73 91.73 123.76"/><polygon class="cls-51" points="94.96 118.64 11.24 62.41 4.36 163.11 88.07 219.33 94.96 118.64"/><polygon class="cls-52" points="98.15 112.72 1 56.88 1.17 169.03 98.31 224.86 98.15 112.72"/><polygon class="cls-53" points="102.03 57.34 99.26 49.78 94.1 55.96 96.87 63.51 102.03 57.34"/><polygon class="cls-54" points="102.51 57.11 98.85 48.95 93.62 56.19 97.28 64.35 102.51 57.11"/><polygon class="cls-55" points="103.03 56.81 98.34 48.05 93.1 56.48 97.79 65.25 103.03 56.81"/><polygon class="cls-56" points="103.58 56.45 97.7 47.1 92.55 56.85 98.42 66.2 103.58 56.45"/><polygon class="cls-57" points="104.17 56 96.93 46.09 91.96 57.3 99.2 67.21 104.17 56"/><polygon class="cls-58" points="104.78 55.45 95.98 45.03 91.35 57.84 100.14 68.27 104.78 55.45"/><polygon class="cls-59" points="105.41 54.8 94.86 43.94 90.72 58.49 101.27 69.36 105.41 54.8"/><polygon class="cls-60" points="106.06 54.03 93.53 42.8 90.06 59.26 102.6 70.49 106.06 54.03"/><polygon class="cls-61" points="106.73 53.13 91.96 41.66 89.4 60.17 104.17 71.64 106.73 53.13"/><polygon class="cls-62" points="107.4 52.08 90.14 40.5 88.73 61.22 105.99 72.79 107.4 52.08"/><polygon class="cls-63" points="108.05 50.86 88.03 39.37 88.08 62.44 108.1 73.93 108.05 50.86"/><polygon class="cls-64" points="108.69 49.46 85.6 38.27 87.44 63.84 110.53 75.03 108.69 49.46"/><polygon class="cls-65" points="109.28 47.85 82.82 37.25 86.85 65.44 113.31 76.05 109.28 47.85"/><polygon class="cls-66" points="109.82 46.03 79.67 36.32 86.31 67.27 116.46 76.97 109.82 46.03"/><polygon class="cls-67" points="110.27 43.97 76.1 35.55 85.86 69.33 120.03 77.75 110.27 43.97"/><polygon class="cls-68" points="110.61 41.65 72.08 34.96 85.52 71.65 124.05 78.34 110.61 41.65"/><polygon class="cls-69" points="110.81 39.05 67.58 34.62 85.33 74.24 128.54 78.67 110.81 39.05"/><polygon class="cls-70" points="110.82 36.16 62.57 34.6 85.31 77.14 133.56 78.7 110.82 36.16"/><polygon class="cls-71" points="110.62 32.95 57.02 34.96 85.51 80.35 139.11 78.34 110.62 32.95"/><polygon class="cls-72" points="110.14 29.41 50.89 35.79 85.99 83.89 145.24 77.51 110.14 29.41"/><polygon class="cls-73" points="109.34 25.52 44.16 37.18 86.79 87.78 151.97 76.12 109.34 25.52"/><polygon class="cls-74" points="108.15 21.27 36.8 39.25 87.98 92.03 159.33 74.05 108.15 21.27"/><polygon class="cls-75" points="106.5 16.65 28.81 42.11 89.63 96.64 167.31 71.19 106.5 16.65"/><polygon class="cls-76" points="104.32 11.66 20.18 45.9 91.81 101.63 175.95 67.4 104.32 11.66"/><polygon class="cls-77" points="101.51 6.3 10.9 50.77 94.62 107 185.22 62.53 101.51 6.3"/><polygon class="cls-78" points="97.98 0.58 1 56.88 98.15 112.72 195.13 56.41 97.98 0.58"/></svg>